<svg width="101" height="28" viewBox="0 0 101 28" fill="none" xmlns="http://www.w3.org/2000/svg">
<g clip-path="url(#clip0_5_73)">
<path d="M86.6712 24.491V3.62H89.9692V17.3941L96.9437 9.37848H100.942L94.6673 16.2478L101 24.491H97.0602L91.931 17.4081L89.9692 17.3941V24.491H86.6712Z" fill="white"/>
<path d="M76.6707 24.8417C71.768 24.8417 69.1123 21.3632 69.1123 16.9201C69.1123 12.4478 71.768 8.99847 76.6707 8.99847C81.6026 8.99847 84.2294 12.4478 84.2294 16.9201C84.2294 21.3632 81.6026 24.8417 76.6707 24.8417ZM72.5559 16.9201C72.5559 20.3694 74.4236 22.094 76.6707 22.094C78.9471 22.094 80.7853 20.3694 80.7853 16.9201C80.7853 13.4708 78.9471 11.717 76.6707 11.717C74.4236 11.717 72.5559 13.4708 72.5559 16.9201Z" fill="white"/>
<path d="M59.9344 24.491V11.7754L62.7068 9.37848H68.6017V12.1847H63.232V24.491H59.9344Z" fill="white"/>
<path d="M47.3252 24.8769C41.0398 24.8769 37.2923 20.3109 37.2923 14.0848C37.2923 7.80008 41.1737 3.12308 47.4479 3.12308C52.3506 3.12308 55.9401 5.63694 56.7864 10.3139H53.0218C52.4673 7.65389 50.2494 6.16311 47.4479 6.16311C42.9246 6.16311 40.9402 10.08 40.9402 14.0848C40.9402 18.0894 42.9246 21.9771 47.4479 21.9771C51.767 21.9771 53.6639 18.8494 53.8098 16.2478H47.302V13.2211H57.1366L57.1205 14.8036C57.1205 20.6839 54.7252 24.8769 47.3252 24.8769Z" fill="white"/>
<path fill-rule="evenodd" clip-rule="evenodd" d="M0 6.00878C0 2.69872 2.68334 0.0153809 5.99341 0.0153809H21.9758C25.2859 0.0153809 27.9692 2.69872 27.9692 6.00879V21.9912C27.9692 25.3013 25.2859 27.9846 21.9758 27.9846H5.9934C2.68334 27.9846 0 25.3013 0 21.9912V6.00878ZM5.44225 11.393L14.0445 23.6784H17.868L9.26543 11.393H5.44225ZM5.43846 23.6785L9.26294 18.2165L11.1759 20.9488L9.2645 23.6785H5.43846ZM18.7423 4.67692L12.1311 14.1188L14.044 16.8508L22.5683 4.67692H18.7423ZM19.4352 23.6781V10.5184L22.5693 6.0427V23.6781H19.4352Z" fill="white"/>
</g>
<defs>
<clipPath id="clip0_5_73">
<rect width="101" height="27.9692" fill="white" transform="translate(0 0.0153809)"/>
</clipPath>
</defs>
</svg>
