<svg width="16" height="16" viewBox="0 0 16 16" fill="none" xmlns="http://www.w3.org/2000/svg">
<path d="M2.16667 15.2621C1.70833 15.2621 1.31597 15.0989 0.989583 14.7725C0.663194 14.4461 0.5 14.0538 0.5 13.5954V1.92875C0.5 1.47042 0.663194 1.07806 0.989583 0.751668C1.31597 0.425279 1.70833 0.262085 2.16667 0.262085H8.83333V1.92875H2.16667V13.5954H13.8333V6.92875H15.5V13.5954C15.5 14.0538 15.3368 14.4461 15.0104 14.7725C14.684 15.0989 14.2917 15.2621 13.8333 15.2621H2.16667ZM3 11.9288H13L9.875 7.76208L7.375 11.0954L5.5 8.59542L3 11.9288ZM12.1667 5.26208V3.59542H10.5V1.92875H12.1667V0.262085H13.8333V1.92875H15.5V3.59542H13.8333V5.26208H12.1667Z" fill="white"/>
</svg>
