<svg width="18" height="18" viewBox="0 0 18 18" fill="none" xmlns="http://www.w3.org/2000/svg">
<path d="M8.95834 13.762C9.25001 13.762 9.49653 13.6614 9.69792 13.46C9.89931 13.2586 10 13.012 10 12.7204C10 12.4287 9.89931 12.1822 9.69792 11.9808C9.49653 11.7794 9.25001 11.6787 8.95834 11.6787C8.66667 11.6787 8.42014 11.7794 8.21876 11.9808C8.01737 12.1822 7.91667 12.4287 7.91667 12.7204C7.91667 13.012 8.01737 13.2586 8.21876 13.46C8.42014 13.6614 8.66667 13.762 8.95834 13.762ZM8.20834 10.5537H9.75001C9.75001 10.0954 9.80209 9.73427 9.90626 9.47038C10.0104 9.20649 10.3056 8.84538 10.7917 8.38704C11.1528 8.02593 11.4375 7.68218 11.6458 7.35579C11.8542 7.02941 11.9583 6.63704 11.9583 6.17871C11.9583 5.40093 11.6736 4.80371 11.1042 4.38704C10.5347 3.97038 9.86112 3.76204 9.08334 3.76204C8.29167 3.76204 7.64931 3.97038 7.15626 4.38704C6.6632 4.80371 6.31945 5.30371 6.12501 5.88704L7.50001 6.42871C7.56945 6.17871 7.7257 5.90788 7.96876 5.61621C8.21181 5.32454 8.58334 5.17871 9.08334 5.17871C9.52778 5.17871 9.86112 5.30024 10.0833 5.54329C10.3056 5.78635 10.4167 6.05371 10.4167 6.34538C10.4167 6.62316 10.3333 6.88357 10.1667 7.12663C10 7.36968 9.79167 7.59538 9.54167 7.80371C8.93056 8.34538 8.55556 8.7551 8.41667 9.03288C8.27778 9.31066 8.20834 9.8176 8.20834 10.5537ZM9.00001 17.0954C7.84723 17.0954 6.76389 16.8766 5.75001 16.4391C4.73612 16.0016 3.85417 15.4079 3.10417 14.6579C2.35417 13.9079 1.76042 13.0259 1.32292 12.012C0.885422 10.9982 0.666672 9.91482 0.666672 8.76204C0.666672 7.60927 0.885422 6.52593 1.32292 5.51204C1.76042 4.49816 2.35417 3.61621 3.10417 2.86621C3.85417 2.11621 4.73612 1.52246 5.75001 1.08496C6.76389 0.647461 7.84723 0.428711 9.00001 0.428711C10.1528 0.428711 11.2361 0.647461 12.25 1.08496C13.2639 1.52246 14.1458 2.11621 14.8958 2.86621C15.6458 3.61621 16.2396 4.49816 16.6771 5.51204C17.1146 6.52593 17.3333 7.60927 17.3333 8.76204C17.3333 9.91482 17.1146 10.9982 16.6771 12.012C16.2396 13.0259 15.6458 13.9079 14.8958 14.6579C14.1458 15.4079 13.2639 16.0016 12.25 16.4391C11.2361 16.8766 10.1528 17.0954 9.00001 17.0954ZM9.00001 15.4287C10.8611 15.4287 12.4375 14.7829 13.7292 13.4912C15.0208 12.1995 15.6667 10.6232 15.6667 8.76204C15.6667 6.90093 15.0208 5.32454 13.7292 4.03288C12.4375 2.74121 10.8611 2.09538 9.00001 2.09538C7.13889 2.09538 5.56251 2.74121 4.27084 4.03288C2.97917 5.32454 2.33334 6.90093 2.33334 8.76204C2.33334 10.6232 2.97917 12.1995 4.27084 13.4912C5.56251 14.7829 7.13889 15.4287 9.00001 15.4287Z" fill="white"/>
</svg>
