<svg width="20" height="17" viewBox="0 0 20 17" fill="none" xmlns="http://www.w3.org/2000/svg">
<path d="M16.4792 16.8541L10.125 10.5C9.68055 11.25 9.0868 11.8541 8.34374 12.3125C7.60069 12.7708 6.76388 13 5.83333 13C4.44444 13 3.26388 12.5139 2.29166 11.5416C1.31944 10.5694 0.833328 9.38887 0.833328 7.99998C0.833328 7.08331 1.05555 6.24304 1.49999 5.47915C1.94444 4.71526 2.54166 4.11109 3.29166 3.66665L1.14583 1.52081L2.33333 0.333313L17.6667 15.6666L16.4792 16.8541ZM14.1667 9.81248L13.1875 8.83331H14.1667V9.81248ZM17.5 13.1458L15.8333 11.4791V8.83331H17.5V7.16665H11.5208L9.85416 5.49998H19.1667V10.5H17.5V13.1458ZM5.83333 11.3333C6.73611 11.3333 7.42708 11.0903 7.90624 10.6041C8.38541 10.118 8.72916 9.68054 8.93749 9.29165L4.56249 4.91665C3.95138 5.16665 3.45486 5.56595 3.07291 6.11456C2.69097 6.66317 2.49999 7.29165 2.49999 7.99998C2.49999 8.91665 2.82638 9.70137 3.47916 10.3541C4.13194 11.0069 4.91666 11.3333 5.83333 11.3333ZM5.83333 9.66665C5.37499 9.66665 4.98263 9.50345 4.65624 9.17706C4.32986 8.85067 4.16666 8.45831 4.16666 7.99998C4.16666 7.54165 4.32986 7.14928 4.65624 6.8229C4.98263 6.49651 5.37499 6.33331 5.83333 6.33331C6.29166 6.33331 6.68402 6.49651 7.01041 6.8229C7.3368 7.14928 7.49999 7.54165 7.49999 7.99998C7.49999 8.45831 7.3368 8.85067 7.01041 9.17706C6.68402 9.50345 6.29166 9.66665 5.83333 9.66665Z" fill="white"/>
</svg>
