<svg width="15" height="17" viewBox="0 0 15 17" fill="none" xmlns="http://www.w3.org/2000/svg">
<path d="M0.416687 16.0833V3.12879C0.416687 2.73295 0.555402 2.3941 0.832833 2.11222C1.11026 1.83033 1.44377 1.68939 1.83335 1.68939H8.98752C8.9403 1.92929 8.91669 2.16919 8.91669 2.40909C8.91669 2.64899 8.9403 2.88889 8.98752 3.12879H1.83335V12.5748L2.64794 11.7652H13.1667V5.93561C13.4382 5.87563 13.692 5.79467 13.9281 5.69271C14.1643 5.59075 14.3827 5.45581 14.5834 5.28788V11.7652C14.5834 12.161 14.4446 12.4998 14.1672 12.7817C13.8898 13.0636 13.5563 13.2045 13.1667 13.2045H3.25002L0.416687 16.0833ZM12.4584 4.56818C11.8681 4.56818 11.3663 4.35827 10.9531 3.93845C10.54 3.51862 10.3334 3.00884 10.3334 2.40909C10.3334 1.80934 10.54 1.29956 10.9531 0.879735C11.3663 0.459912 11.8681 0.25 12.4584 0.25C13.0486 0.25 13.5504 0.459912 13.9636 0.879735C14.3768 1.29956 14.5834 1.80934 14.5834 2.40909C14.5834 3.00884 14.3768 3.51862 13.9636 3.93845C13.5504 4.35827 13.0486 4.56818 12.4584 4.56818Z" fill="white"/>
</svg>
