<svg width="18" height="17" viewBox="0 0 18 17" fill="none" xmlns="http://www.w3.org/2000/svg">
<path d="M12.3334 8.16669C12.5695 8.16669 12.7674 8.08683 12.9271 7.9271C13.0868 7.76738 13.1667 7.56947 13.1667 7.33335C13.1667 7.09724 13.0868 6.89933 12.9271 6.7396C12.7674 6.57988 12.5695 6.50002 12.3334 6.50002C12.0972 6.50002 11.8993 6.57988 11.7396 6.7396C11.5799 6.89933 11.5 7.09724 11.5 7.33335C11.5 7.56947 11.5799 7.76738 11.7396 7.9271C11.8993 8.08683 12.0972 8.16669 12.3334 8.16669ZM5.66669 6.50002H9.83335V4.83335H5.66669V6.50002ZM2.75002 16.5C2.2778 14.9167 1.81252 13.3368 1.35419 11.7604C0.895854 10.184 0.666687 8.56947 0.666687 6.91669C0.666687 5.63891 1.11113 4.55558 2.00002 3.66669C2.88891 2.7778 3.97224 2.33335 5.25002 2.33335H9.41669C9.81947 1.80558 10.309 1.39585 10.8854 1.10419C11.4618 0.81252 12.0834 0.666687 12.75 0.666687C13.0972 0.666687 13.3924 0.788215 13.6354 1.03127C13.8785 1.27433 14 1.56946 14 1.91669C14 2.00002 13.9896 2.08335 13.9688 2.16669C13.9479 2.25002 13.9236 2.32641 13.8959 2.39585C13.8403 2.54863 13.7882 2.70488 13.7396 2.8646C13.691 3.02433 13.6528 3.18752 13.625 3.35419L15.5209 5.25002H17.3334V11.0625L14.9792 11.8334L13.5834 16.5H9.00002V14.8334H7.33335V16.5H2.75002ZM4.00002 14.8334H5.66669V13.1667H10.6667V14.8334H12.3334L13.625 10.5417L15.6667 9.85419V6.91669H14.8334L11.9167 4.00002C11.9167 3.72224 11.934 3.45488 11.9688 3.19794C12.0035 2.94099 12.0556 2.68058 12.125 2.41669C11.7222 2.5278 11.3681 2.71877 11.0625 2.9896C10.757 3.26044 10.5347 3.59724 10.3959 4.00002H5.25002C4.44446 4.00002 3.75696 4.28474 3.18752 4.85419C2.61808 5.42363 2.33335 6.11113 2.33335 6.91669C2.33335 8.2778 2.52085 9.60766 2.89585 10.9063C3.27085 12.2049 3.63891 13.5139 4.00002 14.8334Z" fill="white"/>
</svg>
