<svg width="16" height="16" viewBox="0 0 16 16" fill="none" xmlns="http://www.w3.org/2000/svg">
<path d="M14.3333 15.2621L9.08333 10.0121C8.66667 10.3454 8.1875 10.6093 7.64583 10.8038C7.10417 10.9982 6.52778 11.0954 5.91667 11.0954C4.40278 11.0954 3.12153 10.5711 2.07292 9.5225C1.02431 8.47389 0.5 7.19264 0.5 5.67875C0.5 4.16486 1.02431 2.88361 2.07292 1.835C3.12153 0.786391 4.40278 0.262085 5.91667 0.262085C7.43056 0.262085 8.71181 0.786391 9.76042 1.835C10.809 2.88361 11.3333 4.16486 11.3333 5.67875C11.3333 6.28986 11.2361 6.86625 11.0417 7.40792C10.8472 7.94958 10.5833 8.42875 10.25 8.84542L15.5 14.0954L14.3333 15.2621ZM5.91667 9.42875C6.95833 9.42875 7.84375 9.06417 8.57292 8.335C9.30208 7.60583 9.66667 6.72042 9.66667 5.67875C9.66667 4.63708 9.30208 3.75167 8.57292 3.0225C7.84375 2.29333 6.95833 1.92875 5.91667 1.92875C4.875 1.92875 3.98958 2.29333 3.26042 3.0225C2.53125 3.75167 2.16667 4.63708 2.16667 5.67875C2.16667 6.72042 2.53125 7.60583 3.26042 8.335C3.98958 9.06417 4.875 9.42875 5.91667 9.42875Z" fill="white"/>
</svg>
